<svg width="30" height="30" viewBox="0 0 30 30" fill="none" xmlns="http://www.w3.org/2000/svg">
<path d="M26.1838 10.3813C26.1711 9.4346 25.9939 8.49729 25.66 7.61132C25.3704 6.86401 24.9282 6.18532 24.3615 5.61861C23.7948 5.0519 23.1161 4.60963 22.3687 4.32007C21.4942 3.99176 20.5702 3.81424 19.6362 3.79507C18.4337 3.74132 18.0525 3.72632 15 3.72632C11.9475 3.72632 11.5562 3.72632 10.3625 3.79507C9.42895 3.81439 8.50543 3.9919 7.63125 4.32007C6.88382 4.60943 6.20502 5.05162 5.63829 5.61836C5.07155 6.18509 4.62936 6.86389 4.34 7.61132C4.01104 8.48523 3.8339 9.40896 3.81625 10.3426C3.7625 11.5463 3.74625 11.9276 3.74625 14.9801C3.74625 18.0326 3.74625 18.4226 3.81625 19.6176C3.835 20.5526 4.01125 21.4751 4.34 22.3513C4.62984 23.0985 5.07237 23.777 5.63929 24.3435C6.20622 24.91 6.88508 25.352 7.6325 25.6413C8.50429 25.9828 9.42796 26.173 10.3637 26.2038C11.5675 26.2576 11.9487 26.2738 15.0012 26.2738C18.0537 26.2738 18.445 26.2738 19.6387 26.2038C20.5727 26.1854 21.4967 26.0083 22.3712 25.6801C23.1184 25.3902 23.7969 24.9478 24.3636 24.3811C24.9302 23.8145 25.3726 23.1359 25.6625 22.3888C25.9912 21.5138 26.1675 20.5913 26.1862 19.6551C26.24 18.4526 26.2562 18.0713 26.2562 15.0176C26.2537 11.9651 26.2537 11.5776 26.1838 10.3813ZM14.9925 20.7526C11.8 20.7526 9.21375 18.1663 9.21375 14.9738C9.21375 11.7813 11.8 9.19507 14.9925 9.19507C16.5251 9.19507 17.995 9.8039 19.0787 10.8876C20.1624 11.9714 20.7712 13.4412 20.7712 14.9738C20.7712 16.5064 20.1624 17.9763 19.0787 19.06C17.995 20.1437 16.5251 20.7526 14.9925 20.7526ZM21.0012 10.3288C20.8242 10.329 20.6489 10.2942 20.4854 10.2266C20.3218 10.1589 20.1732 10.0597 20.0481 9.93451C19.9229 9.80935 19.8236 9.66074 19.756 9.49718C19.6883 9.33362 19.6536 9.15832 19.6537 8.98132C19.6537 8.80444 19.6886 8.6293 19.7563 8.46589C19.824 8.30248 19.9232 8.154 20.0482 8.02893C20.1733 7.90386 20.3218 7.80466 20.4852 7.73697C20.6486 7.66928 20.8237 7.63444 21.0006 7.63444C21.1775 7.63444 21.3526 7.66928 21.5161 7.73697C21.6795 7.80466 21.8279 7.90386 21.953 8.02893C22.0781 8.154 22.1773 8.30248 22.245 8.46589C22.3127 8.6293 22.3475 8.80444 22.3475 8.98132C22.3475 9.72632 21.745 10.3288 21.0012 10.3288Z" fill="#FF8F1E"/>
<path d="M14.9925 18.7275C17.0656 18.7275 18.7462 17.0469 18.7462 14.9737C18.7462 12.9006 17.0656 11.22 14.9925 11.22C12.9194 11.22 11.2387 12.9006 11.2387 14.9737C11.2387 17.0469 12.9194 18.7275 14.9925 18.7275Z" fill="#FF8F1E"/>
</svg>
