<svg width="12" height="16" viewBox="0 0 12 16" fill="none" xmlns="http://www.w3.org/2000/svg">
<path d="M1.5 15.5C1.0875 15.5 0.7345 15.3533 0.441 15.0597C0.147 14.7657 0 14.4125 0 14V5C0 4.5875 0.147 4.2345 0.441 3.941C0.7345 3.647 1.0875 3.5 1.5 3.5H3C3 2.675 3.29375 1.96875 3.88125 1.38125C4.46875 0.79375 5.175 0.5 6 0.5C6.825 0.5 7.53125 0.79375 8.11875 1.38125C8.70625 1.96875 9 2.675 9 3.5H10.5C10.9125 3.5 11.2657 3.647 11.5597 3.941C11.8533 4.2345 12 4.5875 12 5V14C12 14.4125 11.8533 14.7657 11.5597 15.0597C11.2657 15.3533 10.9125 15.5 10.5 15.5H1.5ZM3.75 7.25C3.9625 7.25 4.14075 7.178 4.28475 7.034C4.42825 6.8905 4.5 6.7125 4.5 6.5V5H3V6.5C3 6.7125 3.072 6.8905 3.216 7.034C3.3595 7.178 3.5375 7.25 3.75 7.25ZM4.5 3.5H7.5C7.5 3.0875 7.35325 2.7345 7.05975 2.441C6.76575 2.147 6.4125 2 6 2C5.5875 2 5.2345 2.147 4.941 2.441C4.647 2.7345 4.5 3.0875 4.5 3.5ZM8.25 7.25C8.4625 7.25 8.64075 7.178 8.78475 7.034C8.92825 6.8905 9 6.7125 9 6.5V5H7.5V6.5C7.5 6.7125 7.572 6.8905 7.716 7.034C7.8595 7.178 8.0375 7.25 8.25 7.25Z" fill="white"/>
</svg>
