<svg width="25" height="25" viewBox="0 0 25 25" fill="none" xmlns="http://www.w3.org/2000/svg">
<g clip-path="url(#clip0_9_119)">
<path d="M14.5037 12.2912L11.6962 10.9812C11.4512 10.8675 11.25 10.995 11.25 11.2662V13.7337C11.25 14.005 11.4512 14.1325 11.6962 14.0187L14.5025 12.7087C14.7487 12.5937 14.7487 12.4062 14.5037 12.2912ZM12.5 0.5C5.8725 0.5 0.5 5.8725 0.5 12.5C0.5 19.1275 5.8725 24.5 12.5 24.5C19.1275 24.5 24.5 19.1275 24.5 12.5C24.5 5.8725 19.1275 0.5 12.5 0.5ZM12.5 17.375C6.3575 17.375 6.25 16.8212 6.25 12.5C6.25 8.17875 6.3575 7.625 12.5 7.625C18.6425 7.625 18.75 8.17875 18.75 12.5C18.75 16.8212 18.6425 17.375 12.5 17.375Z" fill="#FF8F1E"/>
</g>
<defs>
<clipPath id="clip0_9_119">
<rect width="25" height="25" fill="white"/>
</clipPath>
</defs>
</svg>
